<?xml version="1.0" encoding="UTF-8"?>
<svg width="473px" height="300px" viewBox="0 0 473 300" version="1.1" xmlns="http://www.w3.org/2000/svg" xmlns:xlink="http://www.w3.org/1999/xlink">
    <!-- Generator: Sketch 49.2 (51160) - http://www.bohemiancoding.com/sketch -->
    <title>cloud</title>
    <desc>Created with Sketch.</desc>
    <defs></defs>
    <g id="Page-1" stroke="none" stroke-width="1" fill="none" fill-rule="evenodd">
        <path d="M330.601759,68.4557125 C350.670492,69.6231151 379.384431,82.0898358 395.948253,87.9545883 C447.349948,106.154386 471.736312,138.348569 471.736312,187.522509 C471.736312,224.424783 483.506722,267.777949 427.327905,286.35029 C383.32361,300.897815 251.525562,299.096723 216.578731,299.096723 C211.271579,299.096723 206.525779,298.893085 202.290057,298.493445 C183.843645,300.251592 162.531134,299.985654 139.470629,299.985654 C68.7529871,299.985654 6.94610693,302.48656 0.545844192,241.446941 C0.406859431,240.13323 0.294030055,238.77821 0.207800063,237.380682 C0.0699148051,235.165128 0,232.871295 0,230.496417 C0,230.470919 7.53675609e-06,230.445423 2.26082305e-05,230.419928 C7.5357529e-06,230.394423 0,230.368911 0,230.343387 C0,167.679862 45.4207466,115.291341 106.114398,102.377688 C115.475308,44.2916424 164.539301,0 223.659659,0 C270.582891,0 311.171179,27.90124 330.601759,68.4557125 Z" id="cloud" fill="#4A90E2"></path>
    </g>
</svg>